<?xml version="1.0" encoding="UTF-8" standalone="no"?>
<!DOCTYPE svg PUBLIC "-//W3C//DTD SVG 1.1//EN" "http://www.w3.org/Graphics/SVG/1.1/DTD/svg11.dtd">
<svg width="100%" height="100%" viewBox="0 0 2000 669" version="1.1" xmlns="http://www.w3.org/2000/svg" xmlns:xlink="http://www.w3.org/1999/xlink" xml:space="preserve" xmlns:serif="http://www.serif.com/" style="fill-rule:evenodd;clip-rule:evenodd;stroke-linecap:round;stroke-linejoin:round;stroke-miterlimit:1.5;">
    <path d="M1145.29,405.882C1145.29,405.882 1139.73,415.206 1136.78,418.784C1132.3,424.221 1129.61,428.992 1123.28,436.798C1116.88,444.687 1109.55,453.139 1101.3,460.698C1093.32,468.004 1082.34,476.067 1072.56,483.191C1062.96,490.179 1049.82,498.488 1039.12,505.573C1028.42,512.658 1014.06,520.459 1003.11,526.318C992.513,531.991 981.456,537.092 970.595,541.922C960.332,546.487 948.912,551.692 937.947,555.3C925.518,559.391 909.25,565.09 894.906,567.963C880.843,570.779 863.147,572.007 850.645,571.864C838.591,571.725 829.486,569.223 818.293,565.389C807.524,561.701 796.468,553.623 787.024,546.849C777.558,540.059 768.454,530.732 760.229,522.432C751.541,513.664 743.819,502.454 735.462,491.869C727.276,481.501 718.796,468.286 710.981,457.982C703.652,448.318 694.97,435.732 688.652,427.258C683.493,420.34 677.77,411.282 673.034,405.179C668.995,399.976 660.467,389.037 660.467,389.037L630.526,387.474L600.57,388.088L579.315,389.353C579.315,389.353 571.843,400.559 567.757,406.5C563.179,413.153 556.854,421.598 551.849,429.274C546.69,437.188 539.795,445.33 534.315,453.287C528.903,461.146 523.418,468.804 517.813,476.855C511.507,485.914 502.679,498.628 495.816,507.365C489.672,515.186 482.123,522.915 475.537,529.503C469.546,535.496 463.192,541.412 456.025,546.891C448.747,552.455 439.385,558.24 430.481,562.445C421.576,566.65 409.442,570.068 399.661,571.294C388.369,572.709 370.674,570.845 359.786,569.777C351.256,568.941 342.391,566.068 334.055,563.949C324.332,561.479 311.925,557.927 300.949,554.068C289.93,550.194 278.196,544.744 267.942,540.263C258.168,535.991 248.951,531.182 239.259,526.075C228.966,520.65 217.147,514.17 206.18,507.714C195.215,501.26 183.926,493.44 173.235,485.884C162.3,478.155 149.854,467.556 140.307,459.232C131.822,451.833 123.261,442.649 116.181,433.546C107.872,422.862 97.749,405.519 90.676,392.846C84.113,381.089 78.662,366.981 74.355,355.745C70.561,345.85 67.584,335.68 65.109,325.152C62.444,313.822 59.164,300.321 57.759,287.761C56.317,274.872 54.593,261.18 54.284,247.817C53.965,234.011 55.07,204.868 55.07,204.868C55.07,204.868 57.619,177.481 62.13,164.72C66.758,151.63 74.925,136.559 82.837,126.332C89.841,117.278 98.188,109.219 107.834,103.247C117.481,97.275 127.558,91.994 138.616,88.511C149.685,85.024 161.61,82.322 173.312,80.824C186.031,79.195 201.904,77.941 214.819,77.467C226.809,77.027 250.807,77.98 250.807,77.98L295.756,81.465L338.573,86.728L372.904,91.456C372.904,91.456 419.271,99.046 442.65,102.068C442.65,102.068 505.373,112.318 525.258,115.384C537.464,117.265 550.149,119.569 561.959,120.46C573.315,121.317 584.735,120.713 596.123,120.729C608.716,120.748 623.72,120.647 637.519,120.57C652,120.49 668.386,121.18 683.01,120.246C697.176,119.342 711.228,117.072 725.265,114.968C739.427,112.845 753.719,109.864 767.979,107.509C786.016,104.531 814.183,100.143 833.484,97.1C850.249,94.457 868.388,91.555 883.789,89.25C897.809,87.151 911.809,84.861 925.895,83.266C941.792,81.466 962.791,79.488 979.172,78.452C994.153,77.504 1009.82,76.78 1024.18,77.048C1037.94,77.305 1052.47,78.225 1065.35,80.059C1077.55,81.797 1089.85,83.889 1101.46,88.053C1113.36,92.322 1126.15,98.048 1136.75,105.675C1147.34,113.301 1145.69,111.272 1165.03,133.811L1203.72,133.95C1179.64,133.991 1904.98,133.847 1904.98,133.847C1904.98,133.847 1915.74,133.962 1920.58,135.928C1925.43,137.895 1930.16,141.175 1934.06,145.648C1939.13,151.467 1944.81,160.335 1945.29,168.942C1947.31,204.904 1947.76,324.094 1946.13,361.42C1945.65,372.485 1941.91,385.443 1935.5,392.898C1929.09,400.353 1917.94,405.965 1907.67,406.15C1785.7,408.347 1203.72,406.081 1203.72,406.081L1145.29,405.882Z" style="fill:white;fill-opacity:0.301961;stroke:black;stroke-opacity:0.945098;stroke-width:15.56px;"/>
    <g transform="matrix(2.05398,0,0,1.37759,-113.764,-92.6897)">
        <g transform="matrix(0.491727,0,0,0.544428,53.9201,115.281)">
            <path d="M181.768,377.113C161.924,377.113 146.407,371.729 135.218,360.963C124.029,350.196 118.435,335.207 118.435,315.996L118.435,248.863C118.435,229.441 123.977,214.399 135.06,203.738C146.143,193.077 161.713,187.746 181.768,187.746C201.613,187.746 216.866,192.391 227.527,201.679C238.188,210.968 243.518,224.691 243.518,242.846L243.518,262.163L193.802,262.163L193.802,241.263C193.802,234.296 192.799,229.493 190.793,226.854C188.788,224.216 185.779,222.896 181.768,222.896C177.757,222.896 174.854,224.532 173.06,227.804C171.266,231.077 170.368,236.618 170.368,244.429L170.368,320.429C170.368,328.241 171.318,333.729 173.218,336.896C175.118,340.063 178.074,341.646 182.085,341.646C186.096,341.646 189.052,340.274 190.952,337.529C192.852,334.785 193.802,330.141 193.802,323.596L193.802,299.213L243.518,299.213L243.518,321.379C243.518,339.535 238.135,353.363 227.368,362.863C216.602,372.363 201.402,377.113 181.768,377.113Z" style="fill-rule:nonzero;"/>
        </g>
        <g transform="matrix(0.491727,0,0,0.544428,53.9201,115.281)">
            <path d="M270.752,117.446L322.052,117.446L322.052,207.063C334.929,194.185 349.918,187.746 367.018,187.746C377.574,187.746 385.807,191.704 391.718,199.621C397.629,207.538 400.585,217.829 400.585,230.496L400.585,373.946L349.285,373.946L349.285,237.779C349.285,233.135 348.493,229.704 346.91,227.488C345.327,225.271 342.635,224.163 338.835,224.163C333.979,224.585 328.385,226.802 322.052,230.813L322.052,373.946L270.752,373.946L270.752,117.446Z" style="fill-rule:nonzero;"/>
        </g>
        <g transform="matrix(0.491727,0,0,0.544428,53.9201,115.281)">
            <path d="M491.468,377.113C471.413,377.113 455.791,371.782 444.602,361.121C433.413,350.46 427.818,335.418 427.818,315.996L427.818,248.863C427.818,229.441 433.413,214.399 444.602,203.738C455.791,193.077 471.413,187.746 491.468,187.746C511.735,187.746 526.935,192.918 537.068,203.263C547.202,213.607 552.268,228.807 552.268,248.863L552.268,285.596L478.802,285.596L478.802,317.896C478.802,332.885 482.918,340.379 491.152,340.379C500.229,340.379 504.768,334.468 504.768,322.646L504.768,303.329L552.268,303.329L552.268,321.063C552.268,339.429 546.938,353.363 536.277,362.863C525.616,372.363 510.679,377.113 491.468,377.113ZM504.768,261.529L504.768,243.163C504.768,236.407 503.554,231.604 501.127,228.754C498.699,225.904 495.374,224.479 491.152,224.479C487.141,224.479 484.079,226.063 481.968,229.229C479.857,232.396 478.802,237.991 478.802,246.013L478.802,261.529L504.768,261.529Z" style="fill-rule:nonzero;"/>
        </g>
        <g transform="matrix(0.491727,0,0,0.544428,53.9201,115.281)">
            <path d="M618.135,377.113C609.268,377.113 601.616,374.949 595.177,370.621C588.738,366.293 583.882,360.699 580.61,353.838C577.338,346.977 575.702,339.852 575.702,332.463C575.702,319.163 578.921,308.132 585.36,299.371C591.799,290.61 599.346,283.854 608.002,279.104C616.657,274.354 627.635,269.446 640.935,264.379L651.068,260.579L651.068,242.213C651.068,236.935 650.277,232.924 648.693,230.179C647.11,227.435 644.313,226.063 640.302,226.063C636.291,226.063 633.441,227.329 631.752,229.863C630.063,232.396 629.113,235.985 628.902,240.629L627.635,253.929L579.502,252.029L579.818,246.013C581.296,225.957 587.471,211.232 598.343,201.838C609.216,192.443 624.785,187.746 645.052,187.746C662.996,187.746 676.718,192.76 686.218,202.788C695.718,212.816 700.468,226.168 700.468,242.846L700.468,328.346C700.468,343.968 701.524,359.168 703.635,373.946L657.402,373.946C655.502,359.802 654.129,351.146 653.285,347.979C650.752,356.424 646.529,363.391 640.618,368.879C634.707,374.368 627.213,377.113 618.135,377.113ZM636.502,342.279C639.246,342.279 641.885,341.382 644.418,339.588C646.952,337.793 649.168,335.629 651.068,333.096L651.068,283.063C642.624,287.285 635.71,293.143 630.327,300.638C624.943,308.132 622.252,315.363 622.252,322.329C622.252,328.452 623.624,333.307 626.368,336.896C629.113,340.485 632.491,342.279 636.502,342.279Z" style="fill-rule:nonzero;"/>
        </g>
        <g transform="matrix(0.491727,0,0,0.544428,53.9201,115.281)">
            <path d="M731.185,190.913L782.802,190.913L782.802,204.213C788.713,198.935 795.046,194.871 801.802,192.021C808.557,189.171 815.102,187.746 821.435,187.746C834.946,187.746 845.027,192.707 851.677,202.629C858.327,212.552 861.652,225.535 861.652,241.579L861.652,320.429C861.652,337.952 858.168,351.779 851.202,361.913C844.235,372.046 834.418,377.113 821.752,377.113C808.874,377.113 795.891,371.413 782.802,360.013L782.802,434.113L731.185,434.113L731.185,190.913ZM796.418,343.863C801.063,343.863 804.493,341.963 806.71,338.163C808.927,334.363 810.035,329.402 810.035,323.279L810.035,237.779C810.035,232.502 808.979,228.016 806.868,224.321C804.757,220.627 801.591,218.779 797.368,218.779C792.935,218.779 788.079,220.891 782.802,225.113L782.802,339.113C787.657,342.279 792.196,343.863 796.418,343.863Z" style="fill-rule:nonzero;"/>
        </g>
        <g transform="matrix(0.491727,0,0,0.544428,53.9201,115.281)">
            <path d="M942.718,375.846C929.841,375.424 920.024,372.257 913.268,366.346C906.513,360.435 902.027,352.782 899.81,343.388C897.593,333.993 896.485,322.646 896.485,309.346L896.485,224.796L878.752,224.796L878.752,190.913L896.485,190.913L896.485,135.179L948.735,135.179L948.735,190.913L974.702,190.913L974.702,224.796L948.735,224.796L948.735,319.163C948.735,329.085 954.646,334.046 966.468,334.046C969.213,334.046 971.799,333.835 974.227,333.413C976.654,332.991 978.185,332.779 978.818,332.779L978.818,373.313C968.052,375.213 958.657,376.163 950.635,376.163L942.718,375.846Z" style="fill-rule:nonzero;"/>
        </g>
        <g transform="matrix(0.491727,0,0,0.544428,49.5882,115.281)">
            <path d="M1071.86,377.113C1051.81,377.113 1036.18,371.782 1025,361.121C1013.81,350.46 1008.21,335.418 1008.21,315.996L1008.21,248.863C1008.21,229.441 1013.81,214.399 1025,203.738C1036.18,193.077 1051.81,187.746 1071.86,187.746C1092.13,187.746 1107.33,192.918 1117.46,203.263C1127.6,213.607 1132.66,228.807 1132.66,248.863L1132.66,285.596L1059.19,285.596L1059.19,317.896C1059.19,332.885 1063.31,340.379 1071.55,340.379C1080.62,340.379 1085.16,334.468 1085.16,322.646L1085.16,303.329L1132.66,303.329L1132.66,321.063C1132.66,339.429 1127.33,353.363 1116.67,362.863C1106.01,372.363 1091.07,377.113 1071.86,377.113ZM1085.16,261.529L1085.16,243.163C1085.16,236.407 1083.95,231.604 1081.52,228.754C1079.09,225.904 1075.77,224.479 1071.55,224.479C1067.53,224.479 1064.47,226.063 1062.36,229.229C1060.25,232.396 1059.19,237.991 1059.19,246.013L1059.19,261.529L1085.16,261.529Z" style="fill-rule:nonzero;"/>
        </g>
        <g transform="matrix(0.491727,0,0,0.544428,48.8563,115.281)">
            <path d="M1200.02,377.113C1191.15,377.113 1183.5,374.949 1177.06,370.621C1170.62,366.293 1165.76,360.699 1162.49,353.838C1159.22,346.977 1157.58,339.852 1157.58,332.463C1157.58,319.163 1160.8,308.132 1167.24,299.371C1173.68,290.61 1181.23,283.854 1189.88,279.104C1198.54,274.354 1209.52,269.446 1222.82,264.379L1232.95,260.579L1232.95,242.213C1232.95,236.935 1232.16,232.924 1230.58,230.179C1228.99,227.435 1226.19,226.063 1222.18,226.063C1218.17,226.063 1215.32,227.329 1213.63,229.863C1211.94,232.396 1210.99,235.985 1210.78,240.629L1209.52,253.929L1161.38,252.029L1161.7,246.013C1163.18,225.957 1169.35,211.232 1180.23,201.838C1191.1,192.443 1206.67,187.746 1226.93,187.746C1244.88,187.746 1258.6,192.76 1268.1,202.788C1277.6,212.816 1282.35,226.168 1282.35,242.846L1282.35,328.346C1282.35,343.968 1283.4,359.168 1285.52,373.946L1239.28,373.946C1237.38,359.802 1236.01,351.146 1235.17,347.979C1232.63,356.424 1228.41,363.391 1222.5,368.879C1216.59,374.368 1209.09,377.113 1200.02,377.113ZM1218.38,342.279C1221.13,342.279 1223.77,341.382 1226.3,339.588C1228.83,337.793 1231.05,335.629 1232.95,333.096L1232.95,283.063C1224.51,287.285 1217.59,293.143 1212.21,300.638C1206.83,308.132 1204.13,315.363 1204.13,322.329C1204.13,328.452 1205.51,333.307 1208.25,336.896C1210.99,340.485 1214.37,342.279 1218.38,342.279Z" style="fill-rule:nonzero;"/>
        </g>
        <g transform="matrix(0.491727,0,0,0.544428,48.8563,115.281)">
            <path d="M1313.7,190.913L1365.32,190.913L1365.32,221.313C1376.51,199.568 1388.75,188.696 1402.05,188.696C1403.11,188.696 1405.53,189.118 1409.33,189.963L1409.33,234.929C1408.49,234.718 1407.43,234.507 1406.17,234.296C1404.9,234.085 1403.32,233.979 1401.42,233.979C1393.82,234.613 1387.11,236.777 1381.31,240.471C1375.5,244.166 1370.17,249.602 1365.32,256.779L1365.32,373.946L1313.7,373.946L1313.7,190.913Z" style="fill-rule:nonzero;"/>
        </g>
        <g transform="matrix(0.491727,0,0,0.544428,48.8563,115.281)">
            <path d="M1490.72,377.113C1470.66,377.113 1454.99,372.046 1443.69,361.913C1432.4,351.779 1426.75,336.896 1426.75,317.263L1426.75,247.596C1426.75,227.963 1432.4,213.079 1443.69,202.946C1454.99,192.813 1470.66,187.746 1490.72,187.746C1510.77,187.746 1526.5,192.866 1537.9,203.104C1549.3,213.343 1555,228.174 1555,247.596L1555,317.263C1555,336.685 1549.3,351.516 1537.9,361.754C1526.5,371.993 1510.77,377.113 1490.72,377.113ZM1490.72,342.913C1495.78,342.913 1499.27,341.066 1501.17,337.371C1503.07,333.677 1504.02,328.135 1504.02,320.746L1504.02,244.113C1504.02,236.724 1503.07,231.182 1501.17,227.488C1499.27,223.793 1495.78,221.946 1490.72,221.946C1486.07,221.946 1482.75,223.846 1480.74,227.646C1478.74,231.446 1477.73,236.935 1477.73,244.113L1477.73,320.746C1477.73,328.135 1478.74,333.677 1480.74,337.371C1482.75,341.066 1486.07,342.913 1490.72,342.913Z" style="fill-rule:nonzero;"/>
        </g>
        <g transform="matrix(0.491727,0,0,0.544428,48.8563,115.281)">
            <path d="M1745.63,162.096C1737.61,162.096 1733.6,166.846 1733.6,176.346L1733.6,190.913L1756.72,190.913L1756.72,225.746L1733.6,225.746L1733.6,373.946L1681.98,373.946L1681.98,225.746L1641.77,225.746L1641.77,373.946L1590.15,373.946L1590.15,225.746L1572.73,225.746L1572.73,190.913L1590.15,190.913L1590.15,177.296C1590.15,165.052 1591.31,155.182 1593.63,147.688C1595.95,140.193 1600.76,134.335 1608.04,130.113C1615.33,125.891 1626.04,123.779 1640.18,123.779C1648.63,123.779 1656.86,124.307 1664.88,125.363L1664.88,163.679C1660.24,162.624 1656.54,162.096 1653.8,162.096C1645.78,162.096 1641.77,166.846 1641.77,176.346L1641.77,190.913L1681.98,190.913L1681.98,177.296C1681.98,165.052 1683.14,155.182 1685.47,147.688C1687.79,140.193 1692.59,134.335 1699.88,130.113C1707.16,125.891 1717.87,123.779 1732.02,123.779C1740.67,123.779 1748.9,124.307 1756.72,125.363L1756.72,163.679C1752.07,162.624 1748.38,162.096 1745.63,162.096Z" style="fill-rule:nonzero;"/>
        </g>
        <g transform="matrix(0.491727,0,0,0.544428,48.8563,115.281)">
            <path d="M1830.5,377.113C1814.88,377.113 1801.95,373.471 1791.71,366.188C1781.47,358.904 1773.18,347.241 1766.85,331.196L1802,315.679C1805.38,324.124 1809.34,330.668 1813.88,335.313C1818.41,339.957 1823.32,342.279 1828.6,342.279C1832.61,342.279 1835.67,341.171 1837.78,338.954C1839.89,336.738 1840.95,333.729 1840.95,329.929C1840.74,326.341 1838.73,322.593 1834.93,318.688C1831.13,314.782 1824.69,309.135 1815.62,301.746L1802.32,290.663C1791.34,281.374 1783.37,272.929 1778.41,265.329C1773.45,257.729 1770.97,248.652 1770.97,238.096C1770.97,228.385 1773.55,219.729 1778.73,212.129C1783.9,204.529 1790.81,198.566 1799.47,194.238C1808.12,189.91 1817.41,187.746 1827.33,187.746C1842.32,187.746 1854.83,191.81 1864.86,199.938C1874.89,208.066 1882.01,219.729 1886.23,234.929L1852.98,250.129C1850.87,243.374 1847.6,237.304 1843.17,231.921C1838.73,226.538 1833.88,223.846 1828.6,223.846C1825.22,223.846 1822.53,224.796 1820.53,226.696C1818.52,228.596 1817.52,231.129 1817.52,234.296C1817.52,238.096 1819.47,242.107 1823.38,246.329C1827.28,250.552 1833.88,256.463 1843.17,264.063L1856.15,275.463C1863.33,281.796 1869.08,287.179 1873.41,291.613C1877.74,296.046 1881.43,301.324 1884.49,307.446C1887.55,313.568 1889.08,320.218 1889.08,327.396C1889.08,337.741 1886.39,346.66 1881.01,354.154C1875.62,361.649 1868.45,367.349 1859.48,371.254C1850.5,375.16 1840.84,377.113 1830.5,377.113Z" style="fill-rule:nonzero;"/>
        </g>
    </g>
    <g transform="matrix(0.68676,0,-0.447607,1.37759,1199.65,137.753)">
        <g transform="matrix(1.33962,0,0,0.544428,-36.0291,115.281)">
            <rect x="120.652" y="325.179" width="48.767" height="48.767" style="fill-rule:nonzero;"/>
        </g>
        <g transform="matrix(1.33962,0,0,0.544428,-36.0291,115.281)">
            <path d="M255.235,377.113C235.391,377.113 219.874,371.729 208.685,360.963C197.496,350.196 191.902,335.207 191.902,315.996L191.902,248.863C191.902,229.441 197.443,214.399 208.527,203.738C219.61,193.077 235.179,187.746 255.235,187.746C275.079,187.746 290.332,192.391 300.993,201.679C311.654,210.968 316.985,224.691 316.985,242.846L316.985,262.163L267.268,262.163L267.268,241.263C267.268,234.296 266.266,229.493 264.26,226.854C262.254,224.216 259.246,222.896 255.235,222.896C251.224,222.896 248.321,224.532 246.527,227.804C244.732,231.077 243.835,236.618 243.835,244.429L243.835,320.429C243.835,328.241 244.785,333.729 246.685,336.896C248.585,340.063 251.541,341.646 255.552,341.646C259.563,341.646 262.518,340.274 264.418,337.529C266.318,334.785 267.268,330.141 267.268,323.596L267.268,299.213L316.985,299.213L316.985,321.379C316.985,339.535 311.602,353.363 300.835,362.863C290.068,372.363 274.868,377.113 255.235,377.113Z" style="fill-rule:nonzero;"/>
        </g>
        <g transform="matrix(1.33962,0,0,0.544428,-36.0291,115.281)">
            <path d="M400.268,377.113C380.213,377.113 364.538,372.046 353.243,361.913C341.949,351.779 336.302,336.896 336.302,317.263L336.302,247.596C336.302,227.963 341.949,213.079 353.243,202.946C364.538,192.813 380.213,187.746 400.268,187.746C420.324,187.746 436.052,192.866 447.452,203.104C458.852,213.343 464.552,228.174 464.552,247.596L464.552,317.263C464.552,336.685 458.852,351.516 447.452,361.754C436.052,371.993 420.324,377.113 400.268,377.113ZM400.268,342.913C405.335,342.913 408.818,341.066 410.718,337.371C412.618,333.677 413.568,328.135 413.568,320.746L413.568,244.113C413.568,236.724 412.618,231.182 410.718,227.488C408.818,223.793 405.335,221.946 400.268,221.946C395.624,221.946 392.299,223.846 390.293,227.646C388.288,231.446 387.285,236.935 387.285,244.113L387.285,320.746C387.285,328.135 388.288,333.677 390.293,337.371C392.299,341.066 395.624,342.913 400.268,342.913Z" style="fill-rule:nonzero;"/>
        </g>
        <g transform="matrix(1.33962,0,0,0.544428,-36.0291,115.281)">
            <path d="M489.252,190.913L539.918,190.913L539.918,205.479C552.163,193.446 566.624,187.429 583.302,187.429C590.691,187.429 597.077,189.277 602.46,192.971C607.843,196.666 611.907,202.102 614.652,209.279C627.529,194.713 643.046,187.429 661.202,187.429C671.968,187.429 680.571,191.388 687.01,199.304C693.449,207.221 696.668,218.041 696.668,231.763L696.668,373.946L646.002,373.946L646.002,237.146C646.002,232.291 645.21,228.702 643.627,226.379C642.043,224.057 639.457,222.896 635.868,222.896C633.546,222.896 630.696,223.477 627.318,224.638C623.941,225.799 620.879,227.435 618.135,229.546L618.135,373.946L568.102,373.946L568.102,237.146C568.102,227.646 564.618,222.896 557.652,222.896C552.163,222.896 546.252,225.113 539.918,229.546L539.918,373.946L489.252,373.946L489.252,190.913Z" style="fill-rule:nonzero;"/>
        </g>
    </g>
</svg>
