<?xml version="1.0" encoding="UTF-8" standalone="no"?>
<!DOCTYPE svg PUBLIC "-//W3C//DTD SVG 1.1//EN" "http://www.w3.org/Graphics/SVG/1.1/DTD/svg11.dtd">
<svg width="100%" height="100%" viewBox="0 0 2000 669" version="1.1" xmlns="http://www.w3.org/2000/svg" xmlns:xlink="http://www.w3.org/1999/xlink" xml:space="preserve" xmlns:serif="http://www.serif.com/" style="fill-rule:evenodd;clip-rule:evenodd;stroke-linecap:round;stroke-linejoin:round;stroke-miterlimit:1.5;">
    <path d="M1145.29,405.882C1145.29,405.882 1139.73,415.206 1136.78,418.784C1132.3,424.221 1129.61,428.992 1123.28,436.798C1116.88,444.687 1109.55,453.139 1101.3,460.698C1093.32,468.004 1082.34,476.067 1072.56,483.191C1062.96,490.179 1049.82,498.488 1039.12,505.573C1028.42,512.658 1014.06,520.459 1003.11,526.318C992.513,531.991 981.456,537.092 970.595,541.922C960.332,546.487 948.912,551.692 937.947,555.3C925.518,559.391 909.25,565.09 894.906,567.963C880.843,570.779 863.147,572.007 850.645,571.864C838.591,571.725 829.486,569.223 818.293,565.389C807.524,561.701 796.468,553.623 787.024,546.849C777.558,540.059 768.454,530.732 760.229,522.432C751.541,513.664 743.819,502.454 735.462,491.869C727.276,481.501 718.796,468.286 710.981,457.982C703.652,448.318 694.97,435.732 688.652,427.258C683.493,420.34 677.77,411.282 673.034,405.179C668.995,399.976 660.467,389.037 660.467,389.037L630.526,387.474L600.57,388.088L579.315,389.353C579.315,389.353 571.843,400.559 567.757,406.5C563.179,413.153 556.854,421.598 551.849,429.274C546.69,437.188 539.795,445.33 534.315,453.287C528.903,461.146 523.418,468.804 517.813,476.855C511.507,485.914 502.679,498.628 495.816,507.365C489.672,515.186 482.123,522.915 475.537,529.503C469.546,535.496 463.192,541.412 456.025,546.891C448.747,552.455 439.385,558.24 430.481,562.445C421.576,566.65 409.442,570.068 399.661,571.294C388.369,572.709 370.674,570.845 359.786,569.777C351.256,568.941 342.391,566.068 334.055,563.949C324.332,561.479 311.925,557.927 300.949,554.068C289.93,550.194 278.196,544.744 267.942,540.263C258.168,535.991 248.951,531.182 239.259,526.075C228.966,520.65 217.147,514.17 206.18,507.714C195.215,501.26 183.926,493.44 173.235,485.884C162.3,478.155 149.854,467.556 140.307,459.232C131.822,451.833 123.261,442.649 116.181,433.546C107.872,422.862 97.749,405.519 90.676,392.846C84.113,381.089 78.662,366.981 74.355,355.745C70.561,345.85 67.584,335.68 65.109,325.152C62.444,313.822 59.164,300.321 57.759,287.761C56.317,274.872 54.593,261.18 54.284,247.817C53.965,234.011 55.07,204.868 55.07,204.868C55.07,204.868 57.619,177.481 62.13,164.72C66.758,151.63 74.925,136.559 82.837,126.332C89.841,117.278 98.188,109.219 107.834,103.247C117.481,97.275 127.558,91.994 138.616,88.511C149.685,85.024 161.61,82.322 173.312,80.824C186.031,79.195 201.904,77.941 214.819,77.467C226.809,77.027 250.807,77.98 250.807,77.98L295.756,81.465L338.573,86.728L372.904,91.456C372.904,91.456 419.271,99.046 442.65,102.068C442.65,102.068 505.373,112.318 525.258,115.384C537.464,117.265 550.149,119.569 561.959,120.46C573.315,121.317 584.735,120.713 596.123,120.729C608.716,120.748 623.72,120.647 637.519,120.57C652,120.49 668.386,121.18 683.01,120.246C697.176,119.342 711.228,117.072 725.265,114.968C739.427,112.845 753.719,109.864 767.979,107.509C786.016,104.531 814.183,100.143 833.484,97.1C850.249,94.457 868.388,91.555 883.789,89.25C897.809,87.151 911.809,84.861 925.895,83.266C941.792,81.466 962.791,79.488 979.172,78.452C994.153,77.504 1009.82,76.78 1024.18,77.048C1037.94,77.305 1052.47,78.225 1065.35,80.059C1077.55,81.797 1089.85,83.889 1101.46,88.053C1113.36,92.322 1126.15,98.048 1136.75,105.675C1147.34,113.301 1145.69,111.272 1165.03,133.811L1203.72,133.95C1179.64,133.991 1904.98,133.847 1904.98,133.847C1904.98,133.847 1915.74,133.962 1920.58,135.928C1925.43,137.895 1930.16,141.175 1934.06,145.648C1939.13,151.467 1944.81,160.335 1945.29,168.942C1947.31,204.904 1947.76,324.094 1946.13,361.42C1945.65,372.485 1941.91,385.443 1935.5,392.898C1929.09,400.353 1917.94,405.965 1907.67,406.15C1785.7,408.347 1203.72,406.081 1203.72,406.081L1145.29,405.882Z" style="fill:none;stroke:white;stroke-opacity:0.945098;stroke-width:15.56px;"/>
    <g transform="matrix(1,0,0,1,-1.95238,-27.3657)">
        <g>
            <g transform="matrix(1.01,0,0,0.75,-1.06085,93.4865)">
                <text x="106.085px" y="373.946px" style="font-family:'Oswald-Bold', 'Oswald';font-weight:700;font-size:316.667px;fill:white;stroke:white;stroke-width:1.12px;stroke-linecap:butt;stroke-miterlimit:1.41421;">cheapt</text>
            </g>
            <g transform="matrix(1.01,0,0,0.75,-9.95861,93.4865)">
                <text x="995.861px" y="373.946px" style="font-family:'Oswald-Bold', 'Oswald';font-weight:700;font-size:316.667px;fill:white;stroke:white;stroke-width:1.12px;stroke-linecap:butt;stroke-miterlimit:1.41421;">e</text>
            </g>
            <g transform="matrix(1.01,0,0,0.75,-11.4618,93.4865)">
                <path d="M1745.63,162.096C1737.61,162.096 1733.6,166.846 1733.6,176.346L1733.6,190.913L1756.72,190.913L1756.72,225.746L1733.6,225.746L1733.6,373.946L1681.98,373.946L1681.98,225.746L1641.77,225.746L1641.77,373.946L1590.15,373.946L1590.15,225.746L1572.73,225.746L1572.73,190.913L1590.15,190.913L1590.15,177.296C1590.15,165.052 1591.31,155.182 1593.63,147.688C1595.95,140.193 1600.76,134.335 1608.04,130.113C1615.33,125.891 1626.04,123.779 1640.18,123.779C1648.63,123.779 1656.86,124.307 1664.88,125.363L1664.88,163.679C1660.24,162.624 1656.54,162.096 1653.8,162.096C1645.78,162.096 1641.77,166.846 1641.77,176.346L1641.77,190.913L1681.98,190.913L1681.98,177.296C1681.98,165.052 1683.14,155.182 1685.47,147.688C1687.79,140.193 1692.59,134.335 1699.88,130.113C1707.16,125.891 1717.87,123.779 1732.02,123.779C1740.67,123.779 1748.9,124.307 1756.72,125.363L1756.72,163.679C1752.07,162.624 1748.38,162.096 1745.63,162.096Z" style="fill:white;stroke:white;stroke-width:1.12px;stroke-linecap:butt;stroke-miterlimit:1.41421;"/>
                <text x="1146.18px" y="373.946px" style="font-family:'Oswald-Bold', 'Oswald';font-weight:700;font-size:316.667px;fill:white;stroke:white;stroke-width:1.12px;stroke-linecap:butt;stroke-miterlimit:1.41421;">aro<tspan x="1760.52px " y="373.946px ">s</tspan></text>
            </g>
        </g>
    </g>
    <g transform="matrix(0.92,0,-0.24369,0.75,1123.3,296.563)">
        <text x="106.085px" y="373.946px" style="font-family:'Oswald-Bold', 'Oswald';font-weight:700;font-size:316.667px;fill:white;">.<tspan x="179.552px 323.952px 473.102px " y="373.946px 373.946px 373.946px ">com</tspan></text>
    </g>
</svg>
