<?xml version="1.0" encoding="UTF-8" standalone="no"?>
<!DOCTYPE svg PUBLIC "-//W3C//DTD SVG 1.1//EN" "http://www.w3.org/Graphics/SVG/1.1/DTD/svg11.dtd">
<svg width="100%" height="100%" viewBox="0 0 447 447" version="1.1" xmlns="http://www.w3.org/2000/svg" xmlns:xlink="http://www.w3.org/1999/xlink" xml:space="preserve" xmlns:serif="http://www.serif.com/" style="fill-rule:evenodd;clip-rule:evenodd;stroke-linejoin:round;stroke-miterlimit:1.41421;">
    <path d="M444.274,93.36C441.716,89.694 437.6,87.428 433.129,87.237L155.942,75.289C147.989,74.941 141.343,81.081 141.003,88.997C140.665,96.91 146.795,103.596 154.71,103.936L413.131,115.076L362.32,273.61L136.205,273.61L95.354,51.179C94.456,46.304 91.109,42.237 86.493,40.426L19.586,14.141C12.212,11.254 3.891,14.876 0.995,22.241C-1.896,29.61 1.725,37.936 9.095,40.832L68.586,64.203L110.158,290.538C111.411,297.342 117.341,302.284 124.262,302.284L131.158,302.284L115.411,346.024C114.093,349.688 114.636,353.757 116.879,356.94C119.119,360.124 122.762,362.018 126.651,362.018L137.696,362.018C130.852,369.635 126.651,379.664 126.651,390.693C126.651,414.411 145.95,433.705 169.663,433.705C193.376,433.705 212.675,414.411 212.675,390.693C212.675,379.665 208.474,369.635 201.631,362.018L295.408,362.018C288.561,369.635 284.361,379.664 284.361,390.693C284.361,414.411 303.655,433.705 327.373,433.705C351.092,433.705 370.385,414.411 370.385,390.693C370.385,379.665 366.185,369.635 359.343,362.018L372.775,362.018C379.375,362.018 384.723,356.669 384.723,350.071C384.723,343.471 379.374,338.123 372.775,338.123L143.651,338.123L156.553,302.28L372.774,302.28C379.009,302.28 384.526,298.252 386.425,292.32L446.164,105.933C447.536,101.679 446.832,97.028 444.274,93.36ZM169.664,409.814C159.121,409.814 150.547,401.241 150.547,390.698C150.547,380.155 159.121,371.581 169.664,371.581C180.207,371.581 188.78,380.155 188.78,390.698C188.78,401.241 180.207,409.814 169.664,409.814ZM327.373,409.814C316.83,409.814 308.257,401.241 308.257,390.698C308.257,380.155 316.83,371.581 327.373,371.581C337.916,371.581 346.489,380.155 346.489,390.698C346.489,401.241 337.916,409.814 327.373,409.814Z" style="fill:white;fill-rule:nonzero;"/>
</svg>
